Coordinates	
version=1	
nRows=252	
nColumns=2	
inDegrees=yes	
endheader	
time	shoulder_elv
3.744903578	-0.131023977
3.747312955	0.045932934
3.749722331	0.22357056
3.752722505	0.445660004
3.754597729	0.58495895
3.756472952	0.724604517
3.75981555	0.974347832
3.762371909	1.166011742
3.764928267	1.358216283
3.767484625	1.550915419
3.770040984	1.744084472
3.772162889	1.904743849
3.774284794	2.065681438
3.776976099	2.27016476
3.779667405	2.475019562
3.781994638	2.652422022
3.784321871	2.83004796
3.786649104	3.007863732
3.788976337	3.185850957
3.79130357	3.363979153
3.7942299	3.588132763
3.796310636	3.747599451
3.798391371	3.907123549
3.801165259	4.119842032
3.803939146	4.332592694
3.80603621	4.493421499
3.808133274	4.654231545
3.810942719	4.869602552
3.813426653	5.059934142
3.815910586	5.250149464
3.818069119	5.415341509
3.820227652	5.580409212
3.822832639	5.779438723
3.825437625	5.978236905
3.827574755	6.141146907
3.829711885	6.303866057
3.832365805	6.505654106
3.835019724	6.707098609
3.837073149	6.862718056
3.839126575	7.018101697
3.841901759	7.227713816
3.844676944	7.436845893
3.846564872	7.578834529
3.848452799	7.7205767
3.851529482	7.951027226
3.854073772	8.141065961
3.856618061	8.330604946
3.858764111	8.490064335
3.860910161	8.649142351
3.863489262	8.839789942
3.866068363	9.029847075
3.868150275	9.182812543
3.870232188	9.335370785
3.872888554	9.529407227
3.875544921	9.722740538
3.877548359	9.868066992
3.879551796	10.0129745
3.882327714	10.21303754
3.88481549	10.39161467
3.887303267	10.5694871
3.889351916	10.71543191
3.891400566	10.86087934
3.894041617	11.04764659
3.896682667	11.23355804
3.898686484	11.37403843
3.9006903	11.51400733
3.90342504	11.7042018
3.906159781	11.89341399
3.90804393	12.02320161
3.90992808	12.15250713
3.912882461	12.35428505
3.915347178	12.52169086
3.917811896	12.68824431
3.919975768	12.83374793
3.922139641	12.97857826
3.924303513	13.12272035
3.927008863	13.30195902
3.929192227	13.44581016
3.93137559	13.58894181
3.933558953	13.73133969
3.936235971	13.90492817
3.938390678	14.04382852
3.940545384	14.18199762
3.942700091	14.31942231
3.945439584	14.49306516
3.947581645	14.62798442
3.949723707	14.76215267
3.951865769	14.89555764
3.954638594	15.06710855
3.956763789	15.19770961
3.958888983	15.32754543
3.961014178	15.45660458
3.963829325	15.6263639
3.965940065	15.75273695
3.968050806	15.87833114
3.970594931	16.02866262
3.972856014	16.16130499
3.975117097	16.29302624
3.97737818	16.42382816
3.979639263	16.55369675
3.981900347	16.68263395
3.98416143	16.81062597
3.986422513	16.93767498
3.988683596	17.06376728
3.99094468	17.18890537
3.993205763	17.31307552
3.995466846	17.43628071
3.997727929	17.55850703
3.999989013	17.67975803
4.002250096	17.80001952
4.004511179	17.91929574
4.006772262	18.03757205
4.009033346	18.15485357
4.011294429	18.27112501
4.013555512	18.38639255
4.015816595	18.50064006
4.018077679	18.61387497
4.02010667	18.71461042
4.022135661	18.81452249
4.024603332	18.93491407
4.027071003	19.05407527
4.029110176	19.15160558
4.031149348	19.24829004
4.033646733	19.36553575
4.036144117	19.48150133
4.038099006	19.57137248
4.040053895	19.66045456
4.04266607	19.7782449
4.045278245	19.89461365
4.047150488	19.97713488
4.04902273	20.0589223
4.051792778	20.17857131
4.054071707	20.27579122
4.056350636	20.37190507
4.058629565	20.46691569
4.060908494	20.56081232
4.063187424	20.65360013
4.065466353	20.74526584
4.067485084	20.82553514
4.069503814	20.90491986
4.071936372	20.99940725
4.074368931	21.09260512
4.076410465	21.16983042
4.078451999	21.24614173
4.080493534	21.32154238
4.083304621	21.42386541
4.08535011	21.49723046
4.087395599	21.56966955
4.089931785	21.65820418
4.092165544	21.73499771
4.094399304	21.81068673
4.096633063	21.88526079
4.098866823	21.95872605
4.101100582	22.03107117
4.103334342	22.10230351
4.105568101	22.17241062
4.107801861	22.24140123
4.11003562	22.30926158
4.112034391	22.36903355
4.114033161	22.4278987
4.116451416	22.49791116
4.11886967	22.56659365
4.120915548	22.62366606
4.122961426	22.67978235
4.125007303	22.73494665
4.127748775	22.80736597
4.129793511	22.8602641
4.131838247	22.91220178
4.134336305	22.97435564
4.136562517	23.02853486
4.138788729	23.08157819
4.141014941	23.13347596
4.143241153	23.18423541
4.145467365	23.23384582
4.147693577	23.28231574
4.149919789	23.32963317
4.152146001	23.37580821
4.154145853	23.41630293
4.156145706	23.45587288
4.158565923	23.5025146
4.16098614	23.5477971
4.162993546	23.58431685
4.165000951	23.61990087
4.167455603	23.66213274
4.169910254	23.70296151
4.171840084	23.73406774
4.173769914	23.76430643
4.176337074	23.80317839
4.178904234	23.84051043
4.180756249	23.86647906
4.182608265	23.8916466
4.185328912	23.9271567
4.187573776	23.9551501
4.189818639	23.98195655
4.192063503	24.00758164
4.194308367	24.0320176
4.196553231	24.0552721
4.198798095	24.07733516
4.201042959	24.09821713
4.203008841	24.11552365
4.204974724	24.13192309
4.207434661	24.15115816
4.209894599	24.16896967
4.211859575	24.18216774
4.213824551	24.19445829
4.216335731	24.20883667
4.21884691	24.22173051
4.220725574	24.23039888
4.222604238	24.2382375
4.225259675	24.24789409
4.227611898	24.25506012
4.229964121	24.26091561
4.23191641	24.26478803
4.233868699	24.26775746
4.236349865	24.2702356
4.238831031	24.27125754
4.240769622	24.27104901
4.242708214	24.26995073
4.245243876	24.26717849
4.247779538	24.26288648
4.249642687	24.25877074
4.251505836	24.25383384
4.254164502	24.24537461
4.256489123	24.23661178
4.258813745	24.22658024
4.260904126	24.21646943
4.262994507	24.20533444
4.265084888	24.19316935
4.267604396	24.17714509
4.269722438	24.16251724
4.27184048	24.14683983
4.273958522	24.13010716
4.276076564	24.11232481
4.278715009	24.08870011
4.280694077	24.06991285
4.282673146	24.05020619
4.285205612	24.02365585
4.287738078	23.9956033
4.289557501	23.97452948
4.291376923	23.95268059
4.294114602	23.91835272
4.296485283	23.88721495
4.298855963	23.85477379
4.300887506	23.82593037
4.302919048	23.79613261
4.304950591	23.76537582
4.30769573	23.72229933
4.309783562	23.68836702
4.311871394	23.65343066
4.313959226	23.61748592
4.31660326	23.57052613
4.318668619	23.53272103
